<?xml version="1.0" encoding="UTF-8" standalone="no"?>
<svg
   height="48"
   width="48"
   version="1.1"
   id="svg4"
   sodipodi:docname="icn_darkmode_bedtime_wht.svg"
   inkscape:version="1.2.1 (9c6d41e, 2022-07-14)"
   xmlns:inkscape="http://www.inkscape.org/namespaces/inkscape"
   xmlns:sodipodi="http://sodipodi.sourceforge.net/DTD/sodipodi-0.dtd"
   xmlns="http://www.w3.org/2000/svg"
   xmlns:svg="http://www.w3.org/2000/svg">
  <defs
     id="defs8" />
  <sodipodi:namedview
     id="namedview6"
     pagecolor="#505050"
     bordercolor="#ffffff"
     borderopacity="1"
     inkscape:showpageshadow="0"
     inkscape:pageopacity="0"
     inkscape:pagecheckerboard="1"
     inkscape:deskcolor="#505050"
     showgrid="false"
     inkscape:zoom="4.9166667"
     inkscape:cx="-21.559322"
     inkscape:cy="24"
     inkscape:window-width="1309"
     inkscape:window-height="456"
     inkscape:window-x="0"
     inkscape:window-y="38"
     inkscape:window-maximized="0"
     inkscape:current-layer="svg4" />
  <path
     d="M26.2 46q-4.2 0-7.875-1.6t-6.4-4.325Q9.2 37.35 7.6 33.675 6 30 6 25.8q0-7.3 4.65-12.875T22.5 6q-.9 4.9.55 9.625 1.45 4.725 5 8.275 3.55 3.55 8.275 5.025Q41.05 30.4 46 29.5q-1.3 7.2-6.9 11.85Q33.5 46 26.2 46Zm0-3q5 0 9.1-2.85t6.6-7.25q-4.5-.4-8.65-2.075Q29.1 29.15 25.95 26q-3.2-3.15-4.85-7.275-1.65-4.125-2.05-8.575-4.4 2.4-7.225 6.525Q9 20.8 9 25.8q0 7.15 5.025 12.175T26.2 43Zm-.3-17Z"
     id="path2"
     style="fill:#ffffff" />
</svg>
