<?xml version="1.0" encoding="UTF-8" standalone="no"?>
<svg
   height="48"
   width="48"
   version="1.1"
   id="svg4"
   sodipodi:docname="icn_lightmode_sunny_wht.svg"
   inkscape:version="1.2.1 (9c6d41e, 2022-07-14)"
   xmlns:inkscape="http://www.inkscape.org/namespaces/inkscape"
   xmlns:sodipodi="http://sodipodi.sourceforge.net/DTD/sodipodi-0.dtd"
   xmlns="http://www.w3.org/2000/svg"
   xmlns:svg="http://www.w3.org/2000/svg">
  <defs
     id="defs8" />
  <sodipodi:namedview
     id="namedview6"
     pagecolor="#505050"
     bordercolor="#ffffff"
     borderopacity="1"
     inkscape:showpageshadow="0"
     inkscape:pageopacity="0"
     inkscape:pagecheckerboard="1"
     inkscape:deskcolor="#505050"
     showgrid="false"
     inkscape:zoom="4.9166667"
     inkscape:cx="-21.559322"
     inkscape:cy="24"
     inkscape:window-width="1309"
     inkscape:window-height="456"
     inkscape:window-x="0"
     inkscape:window-y="38"
     inkscape:window-maximized="0"
     inkscape:current-layer="svg4" />
  <path
     d="M22.5 9.5V2h3v7.5Zm12.8 5.3-2.1-2.1 5.3-5.35 2.1 2.15Zm3.2 10.7v-3H46v3ZM22.5 46v-7.5h3V46Zm-9.85-31.25L7.4 9.5l2.1-2.1 5.3 5.3Zm25.9 25.85-5.35-5.3 2.05-2.05 5.4 5.2ZM2 25.5v-3h7.5v3Zm7.55 15.1L7.4 38.5l5.25-5.25 1.1 1 1.1 1.05ZM24 36q-5 0-8.5-3.5T12 24q0-5 3.5-8.5T24 12q5 0 8.5 3.5T36 24q0 5-3.5 8.5T24 36Zm0-3q3.75 0 6.375-2.625T33 24q0-3.75-2.625-6.375T24 15q-3.75 0-6.375 2.625T15 24q0 3.75 2.625 6.375T24 33Zm0-9Z"
     id="path2"
     style="fill:#ffffff" />
</svg>
