<?xml version="1.0" encoding="UTF-8" standalone="no"?>
<svg
   viewBox="0 0 576 512"
   version="1.1"
   id="svg4"
   sodipodi:docname="toggle-off-solid.svg"
   inkscape:version="1.2.1 (9c6d41e, 2022-07-14)"
   xmlns:inkscape="http://www.inkscape.org/namespaces/inkscape"
   xmlns:sodipodi="http://sodipodi.sourceforge.net/DTD/sodipodi-0.dtd"
   xmlns="http://www.w3.org/2000/svg"
   xmlns:svg="http://www.w3.org/2000/svg">
  <defs
     id="defs8" />
  <sodipodi:namedview
     id="namedview6"
     pagecolor="#505050"
     bordercolor="#ffffff"
     borderopacity="1"
     inkscape:showpageshadow="0"
     inkscape:pageopacity="0"
     inkscape:pagecheckerboard="1"
     inkscape:deskcolor="#505050"
     showgrid="false"
     inkscape:zoom="2.1671532"
     inkscape:cx="158.04143"
     inkscape:cy="151.35063"
     inkscape:window-width="1728"
     inkscape:window-height="1080"
     inkscape:window-x="0"
     inkscape:window-y="37"
     inkscape:window-maximized="0"
     inkscape:current-layer="svg4" />
  <!--! Font Awesome Pro 6.2.1 by @fontawesome - https://fontawesome.com License - https://fontawesome.com/license (Commercial License) Copyright 2022 Fonticons, Inc. -->
  <path
     d="m 29.33333,4.88889 c 5.4007,0 9.77778,4.37709 9.77778,9.77778 0,5.40069 -4.37708,9.77778 -9.77778,9.77778 H 14.66667 c -5.4007,0 -9.77778,-4.37709 -9.77778,-9.77778 0,-5.40069 4.37708,-9.77778 9.77778,-9.77778 z M 44,14.66667 C 44,6.56945 37.43056,0 29.33333,0 H 14.66667 C 6.56944,0 0,6.56945 0,14.66667 0,22.76389 6.56944,29.33334 14.66667,29.33334 H 29.33333 C 37.43056,29.33334 44,22.76389 44,14.66667 Z M 14.66667,22 C 18.71528,22 22,18.71528 22,14.66667 22,10.61806 18.71528,7.33334 14.66667,7.33334 c -4.04861,0 -7.33334,3.28472 -7.33334,7.33333 0,4.04861 3.28473,7.33333 7.33334,7.33333 z"
     id="path2"
     style="stroke-width:0.0763889" />
</svg>
